<svg width="32" height="32" viewBox="0 0 32 32" fill="none" xmlns="http://www.w3.org/2000/svg">
  <defs>
    <linearGradient id="grad1" x1="0%" y1="0%" x2="100%" y2="100%">
      <stop offset="0%" style="stop-color:#6366f1;stop-opacity:1" />
      <stop offset="100%" style="stop-color:#a855f7;stop-opacity:1" />
    </linearGradient>
  </defs>
  
  <!-- Background -->
  <rect width="32" height="32" rx="6" fill="url(#grad1)"/>
  
  <!-- Resume Document with folded corner -->
  <rect x="7" y="5" width="12" height="16" rx="1" fill="white" opacity="0.95"/>
  <path d="M19 5 L19 9 L15 9 Z" fill="white" opacity="0.95"/>
  <path d="M19 5 L19 9 L15 9" stroke="#6366f1" stroke-width="0.5" opacity="0.3"/>
  
  <!-- Resume content lines -->
  <rect x="8.5" y="7.5" width="8" height="1" rx="0.5" fill="#6366f1" opacity="0.8"/>
  <rect x="8.5" y="9.5" width="9" height="0.75" rx="0.375" fill="#6366f1" opacity="0.6"/>
  <rect x="8.5" y="11" width="7" height="0.75" rx="0.375" fill="#6366f1" opacity="0.6"/>
  <rect x="8.5" y="12.5" width="8.5" height="0.75" rx="0.375" fill="#6366f1" opacity="0.6"/>
  <rect x="8.5" y="14" width="6" height="0.75" rx="0.375" fill="#6366f1" opacity="0.6"/>
  <rect x="8.5" y="15.5" width="7.5" height="0.75" rx="0.375" fill="#6366f1" opacity="0.6"/>
  
  <!-- Section divider -->
  <rect x="8.5" y="17" width="9" height="0.5" rx="0.25" fill="#6366f1" opacity="0.4"/>
  
  <!-- Bullet points (skills/experience) -->
  <circle cx="9" cy="18.5" r="0.4" fill="#6366f1" opacity="0.6"/>
  <rect x="10" y="18.25" width="7" height="0.5" rx="0.25" fill="#6366f1" opacity="0.6"/>
  <circle cx="9" cy="19.5" r="0.4" fill="#6366f1" opacity="0.6"/>
  <rect x="10" y="19.25" width="6.5" height="0.5" rx="0.25" fill="#6366f1" opacity="0.6"/>
  
  <!-- Lens/Eye overlay - analyzing the resume -->
  <circle cx="16" cy="16" r="7" fill="none" stroke="white" stroke-width="1.5" opacity="0.9"/>
  <circle cx="16" cy="16" r="4" fill="white" opacity="0.7"/>
  <circle cx="16" cy="16" r="2" fill="#6366f1"/>
  
  <!-- Sparkle/AI indicator -->
  <circle cx="22" cy="9" r="1.5" fill="#fbbf24"/>
  <path d="M22 7.5 L22 10.5 M20.5 9 L23.5 9" stroke="#fbbf24" stroke-width="1" stroke-linecap="round"/>
</svg>
